<svg width="91" height="62" fill="none" xmlns="http://www.w3.org/2000/svg"><path d="M12.821 16.006c.67 1.816 1.338 3.711 1.88 5.575l.239.844a1.592 1.592 0 00.907 1.035 1.594 1.594 0 001.386 0 11.514 11.514 0 013.472-1.258 11.673 11.673 0 015.972.557 1.601 1.601 0 101.1-3.01 14.828 14.828 0 00-7.614-.637c-.908.15-1.799.39-2.66.717a131.987 131.987 0 00-1.672-4.858l-.207-.637a10.51 10.51 0 01-.62-3.567 9.683 9.683 0 011.194-4.906 5.384 5.384 0 014.778-2.644c.32 0 .64.031.955.096l5.606.987c.185.033.373.033.558 0l5.622-.987a4.46 4.46 0 01.876-.127 5.367 5.367 0 014.777 2.627c.347.681.604 1.404.765 2.15.247.925.37 1.878.366 2.835a10.448 10.448 0 01-.685 3.536c-.207.542-.366 1.003-.541 1.45-.494 1.337-.924 2.484-1.72 5.143-.08.271-.144.494-.191.637a1.594 1.594 0 001.115 1.975c.142.024.287.024.43 0a1.593 1.593 0 001.592-1.162l.175-.605c.765-2.533 1.147-3.6 1.593-4.938l.541-1.48c.54-1.492.815-3.066.813-4.651a14.335 14.335 0 00-.462-3.663 12.055 12.055 0 00-1.163-2.851A8.6 8.6 0 0034.593 0a9.242 9.242 0 00-1.513.128l-5.336.955-5.303-.94A8.074 8.074 0 0020.848 0a8.584 8.584 0 00-7.485 4.253 12.948 12.948 0 00-1.593 6.498 13.606 13.606 0 00.813 4.65l.238.605zm37.14.892c.51 1.338.892 2.39 1.593 4.921l.175.59a1.591 1.591 0 001.975 1.099 1.594 1.594 0 001.099-2.007l-.175-.621c-.797-2.628-1.227-3.79-1.72-5.129-.175-.43-.335-.907-.542-1.449a10.448 10.448 0 01-.62-3.567c.026-.937.165-1.868.413-2.772.207-.72.495-1.415.86-2.07a5.367 5.367 0 014.778-2.628 4.8 4.8 0 01.956.096l5.606.987c.184.033.373.033.557 0l5.606-.987c.291-.087.59-.146.892-.175a5.384 5.384 0 014.698 2.643 9.682 9.682 0 011.195 4.906 10.511 10.511 0 01-.621 3.599l-.24.605c-.572 1.593-1.162 3.186-1.592 4.778a13.806 13.806 0 00-2.723-.605 14.764 14.764 0 00-7.597.7 1.601 1.601 0 00-.642 2.582 1.6 1.6 0 001.725.429 11.705 11.705 0 016.052-.621c1.22.207 2.397.61 3.488 1.194.23.124.487.19.748.191.214 0 .425-.044.621-.127a1.593 1.593 0 00.924-1.035l.24-.845c.525-1.863 1.21-3.742 1.862-5.558l.08-.62c.545-1.491.825-3.065.828-4.651a12.948 12.948 0 00-1.592-6.498A8.584 8.584 0 0071.398 0a9.242 9.242 0 00-1.513.128l-5.335.955-5.303-.94A8.076 8.076 0 0057.653 0a8.6 8.6 0 00-7.47 4.237 11.568 11.568 0 00-1.162 2.835 13.875 13.875 0 00-.462 3.679 13.63 13.63 0 00.812 4.65c.24.526.43 1.035.59 1.497zM83.853 30.34l-1.036-.08a16.516 16.516 0 00-6.64 1.195 8.552 8.552 0 00-5.99-2.341 8.07 8.07 0 00-1.369.111l-4.778.733-4.857-.733a7.818 7.818 0 00-1.37-.111 8.616 8.616 0 00-5.829 2.181 12.28 12.28 0 00-12.263 0 8.616 8.616 0 00-5.83-2.197 7.818 7.818 0 00-1.369.111l-4.857.733-4.778-.733a7.82 7.82 0 00-1.37-.111 8.6 8.6 0 00-5.829 2.198 14.111 14.111 0 00-9.317-1.657h-.175a7.724 7.724 0 00-6.195 7.677v20.592a1.593 1.593 0 003.185 0V37.316a4.523 4.523 0 013.663-4.508 10.75 10.75 0 016.912 1.18 9.906 9.906 0 00-.764 3.853 10.03 10.03 0 001.72 5.559l1.465 2.181c.545.784.88 1.694.971 2.644a19.11 19.11 0 003.186 8.537l.971 1.449a3.058 3.058 0 002.532 1.306 2.898 2.898 0 002.995-2.803v-2.39c.002-.884.175-1.76.51-2.58l.318-.78.302.717c.39.867.59 1.806.59 2.755v2.278a2.9 2.9 0 002.994 2.803 3.058 3.058 0 002.532-1.306l.971-1.45a18.68 18.68 0 003.186-8.536c.092-.95.426-1.86.971-2.644l1.465-2.181a9.906 9.906 0 001.72-5.559 9.653 9.653 0 00-.764-3.87 9.03 9.03 0 018.6 0 9.65 9.65 0 00-.86 3.87 9.906 9.906 0 001.72 5.559l1.465 2.181a5.75 5.75 0 01.972 2.644 18.683 18.683 0 003.185 8.537l.972 1.449a3.026 3.026 0 002.532 1.306 2.898 2.898 0 002.994-2.803v-2.39a7.214 7.214 0 01.494-2.58l.318-.78.319.717a6.95 6.95 0 01.573 2.755v2.278a2.915 2.915 0 002.994 2.803 3.058 3.058 0 002.549-1.306l.955-1.45a18.683 18.683 0 003.185-8.536c.106-.95.445-1.857.988-2.644l1.45-2.181a10.017 10.017 0 001.002-9.174c1.53-.56 3.15-.825 4.778-.78a6.49 6.49 0 01.797 0 4.57 4.57 0 013.981 4.666v22.106a1.592 1.592 0 003.186 0V38.112a7.804 7.804 0 00-6.928-7.772zM37.905 41.616l-1.449 2.182a9.045 9.045 0 00-1.513 4.093 15.464 15.464 0 01-2.596 7.087l-.637.94v-1.482a10.096 10.096 0 00-.844-4.029l-.382-.892a3.185 3.185 0 00-5.782.08l-.382.955a9.954 9.954 0 00-.733 3.775v1.593l-.636-.94a15.464 15.464 0 01-2.596-7.087 9.046 9.046 0 00-1.514-4.093l-1.449-2.182a6.688 6.688 0 01-1.178-3.775 6.274 6.274 0 011.003-3.551 5.064 5.064 0 014.22-1.943c.292-.024.585-.024.876 0l5.097.764c.159.016.319.016.478 0l5.096-.764c.297-.025.595-.025.892 0a5.031 5.031 0 014.204 1.959 6.226 6.226 0 011.02 3.535 6.705 6.705 0 01-1.195 3.775zm36.376 0l-1.465 2.182a9.206 9.206 0 00-1.497 4.093 15.322 15.322 0 01-2.612 7.087l-.621.94v-1.482a10.096 10.096 0 00-.845-4.029l-.35-.892a3.186 3.186 0 00-5.765.08l-.383.955a9.954 9.954 0 00-.732 3.775v1.593l-.637-.94a15.75 15.75 0 01-2.612-7.087 9.015 9.015 0 00-1.497-4.093L53.8 41.616a6.816 6.816 0 01-1.243-3.775 6.37 6.37 0 011.02-3.551 5.065 5.065 0 014.204-1.943c.297-.024.595-.024.892 0l5.096.764c.16.016.32.016.478 0l5.08-.764c.303-.024.606-.024.909 0a5.032 5.032 0 014.204 1.959 6.227 6.227 0 011.004 3.535 6.817 6.817 0 01-1.163 3.775z" fill="#3D67B8"/></svg>