<svg width="34" height="62" fill="none" xmlns="http://www.w3.org/2000/svg"><path d="M33.51 7.32a12.427 12.427 0 00-1.221-2.985A8.808 8.808 0 0024.608 0a8.181 8.181 0 00-1.552.139L17.001 1.2 10.956.139A8.33 8.33 0 009.383 0a8.797 8.797 0 00-7.68 4.356 13.599 13.599 0 00-1.7 6.853c-.002 1.677.29 3.341.86 4.919l.255.69c.733 2.03 1.498 4.133 2.125 6.236l.223.787v9.795a1.063 1.063 0 001.062 1.062h2.157l2.741 2.125v16.403a5.429 5.429 0 001.817 4.059l5.046 4.483h.074l.107.064h.881l.107-.064h.116l5.036-4.483a5.396 5.396 0 001.828-4.059V36.76l2.73-2.125h2.22a1.062 1.062 0 001.063-1.062v-9.72l.159-.553c.606-2.061 1.35-4.133 2.072-6.13l.382-1.063c.594-1.566.91-3.223.935-4.897a15.285 15.285 0 00-.489-3.889zM16.512 38.565a16.617 16.617 0 015.907 2.497h.053v3.708a21.415 21.415 0 00-5.577-1.987l-5.387-1.126v-4.133l5.004 1.041zm4.834 17.169l-.117.095a21.743 21.743 0 00-4.334-1.413l-5.387-1.062v-3.368l4.962 1.062a18.09 18.09 0 013.123.925c.994.385 1.954.854 2.869 1.402a3.348 3.348 0 01-1.127 2.358h.011zm-.999-5.716a20.778 20.778 0 00-3.452-1.063l-5.387-1.126v-4.016l4.962 1.063a19.53 19.53 0 016.002 2.348v3.771a20.078 20.078 0 00-2.135-.977h.01zm-7.808 5.62l3.93.818c1.036.22 2.052.521 3.039.903L17.001 59.6l-4.356-3.867-.106-.095zm10.337-20.186a1.063 1.063 0 00-.404.83v2.4a18.434 18.434 0 00-5.535-2.125l-6.034-1.285-.787-.595h13.727l-.967.775zm5.577-2.815H5.506v-7.904h22.937l.01 7.904zm2.741-17.179l-.371 1.063c-.734 2.008-1.488 4.09-2.125 6.193H5.315v-.18c-.617-2.125-1.392-4.303-2.125-6.375l-.245-.68a12.462 12.462 0 01-.743-4.249 11.538 11.538 0 011.306-5.843 6.735 6.735 0 015.886-3.262 7.31 7.31 0 011.2.107l6.226 1.062c.12.02.242.02.361 0l6.237-1.062a7.31 7.31 0 011.2-.107 6.725 6.725 0 015.865 3.294c.462.781.82 1.62 1.062 2.496.286 1.093.428 2.218.425 3.347a12.42 12.42 0 01-.786 4.164l.01.032z" fill="#3D67B8"/><path d="M8.269 30.746h9.434a1.062 1.062 0 000-2.124H9.31v-1.807a1.062 1.062 0 10-2.072 0v2.933a1.062 1.062 0 001.031.998zm20.207-24.19a6.555 6.555 0 00-6.46-2.072l-4.536.988a1.063 1.063 0 00-.786 1.243 1.062 1.062 0 001.232.786l4.537-.998a4.515 4.515 0 014.43 1.391c.074.096.159.192.233.298.619.902.938 1.976.914 3.07a1.063 1.063 0 002.125 0 7.224 7.224 0 00-1.317-4.25c-.16-.19-.266-.329-.372-.456z" fill="#3D67B8"/></svg>