<svg width="113" height="61" fill="none" xmlns="http://www.w3.org/2000/svg"><path d="M8.983 28.92l3.469-1.11a324.95 324.95 0 011.506 8.958 8.622 8.622 0 007.73 7.493h1.031c.435.03.873.03 1.308 0a8.662 8.662 0 007.512-7.334l2.2-13.657 1.051-.139a923.454 923.454 0 011.982 11.12 8.622 8.622 0 007.552 7.433l.139-1.705v1.705h.872c.435.03.873.03 1.308 0a8.661 8.661 0 007.512-7.334l1.982-12.785h.912c.753 4.123 1.526 8.405 2.14 12.607a8.642 8.642 0 007.77 7.512l.14-1.705v1.705h.872c.435.03.872.03 1.308 0a8.622 8.622 0 007.492-7.334l1.804-11.298.912.139c0 .456.178.931.258 1.387.753 4.143 1.526 8.424 2.14 12.607a8.643 8.643 0 007.75 7.492h2.28a8.642 8.642 0 007.492-7.334l1.487-9.534c1.486.436 2.973.872 4.44 1.348.17.027.344.027.515 0a1.722 1.722 0 001.614-1.449 1.722 1.722 0 00-1.079-1.881 109.2 109.2 0 00-4.955-1.487l1.982-12.626a6.698 6.698 0 00-4.262-7.353 24.618 24.618 0 00-7.928-1.348c-3.046.045-6.07.525-8.98 1.427a7.613 7.613 0 00-1.803.872 6.64 6.64 0 00-3.964-3.964A24.618 24.618 0 0068.546 0h-.14c-3 .035-5.98.516-8.84 1.427a6.858 6.858 0 00-2.973 1.863 6.68 6.68 0 00-2.854-1.982A24.618 24.618 0 0045.95.06h-.119a30.445 30.445 0 00-8.86 1.428 6.858 6.858 0 00-4.083 3.429 6.145 6.145 0 00-1.744-.892 24.618 24.618 0 00-7.83-1.348h-.118c-3.004.01-5.99.464-8.86 1.348a6.72 6.72 0 00-4.718 7.452c.654 4.262 1.427 8.563 2.18 12.745v.258c-1.288.377-2.596.753-3.964 1.17a1.725 1.725 0 101.03 3.27h.12zm19.087 7.49a5.193 5.193 0 01-4.46 4.46c-.547.05-1.098.05-1.645 0a5.273 5.273 0 01-4.619-4.578 368.042 368.042 0 00-1.566-9.356 154 154 0 0114.292-3.112L28.07 36.411zm22.635-2.656a5.193 5.193 0 01-4.46 4.46 7.54 7.54 0 01-1.645 0 5.272 5.272 0 01-4.618-4.46c-.555-3.686-1.209-7.413-1.883-11.06 4.837-.555 9.693-.912 14.549-1.03l-1.943 12.09zm22.676 0a5.213 5.213 0 01-4.46 4.46 7.54 7.54 0 01-1.645 0 5.252 5.252 0 01-4.658-4.46c-.614-3.964-1.348-8.126-1.982-12.11 4.876.119 9.732.456 14.568 1.01l-1.823 11.1zm22.596 3.033a5.213 5.213 0 01-4.48 4.46 7.36 7.36 0 01-1.625 0 5.252 5.252 0 01-4.598-4.559c-.635-4.242-1.428-8.543-2.18-12.705v-.218a152.98 152.98 0 0114.528 3.131l-1.645 9.891zM83.292 7.73a26.462 26.462 0 017.929-1.268c2.288.006 4.56.395 6.72 1.15a3.251 3.251 0 012.12 3.627l-1.982 12.23a164.755 164.755 0 00-15.698-3.291 293.59 293.59 0 01-1.487-8.84 3.29 3.29 0 012.398-3.608zM60.637 4.757a27.136 27.136 0 017.81-1.268h.118a21.11 21.11 0 016.799 1.169 3.25 3.25 0 011.982 3.627l-1.744 10.961a163.875 163.875 0 00-15.738-1.07c-.575-3.23-1.15-6.541-1.645-9.792a3.31 3.31 0 012.418-3.627zM38 4.757a27.154 27.154 0 017.93-1.267 21.11 21.11 0 016.72 1.169 3.25 3.25 0 012.12 3.627l-1.565 9.91c-5.273 0-10.505.477-15.699 1.091-.654-3.608-1.308-7.334-1.783-10.902a3.31 3.31 0 012.28-3.627zm-24.975 6.204a3.29 3.29 0 012.34-3.627 27.155 27.155 0 017.829-1.328h.099c2.289.013 4.56.408 6.72 1.17a3.25 3.25 0 012.12 3.627l-1.487 9.395c-5.213.852-10.366 1.982-15.48 3.31-.753-4.083-1.526-8.345-2.14-12.547z" fill="#3D67B8"/><path d="M111.934 42.457a1.705 1.705 0 00-2.22.951l-2.775 7.017a11.22 11.22 0 01-10.485 7.116H15.9a11.318 11.318 0 01-10.902-8.325l-1.586-5.55a1.685 1.685 0 00-2.1-1.209A1.704 1.704 0 00.042 44.5l1.507 5.59A14.747 14.747 0 0015.9 60.97h80.554a14.646 14.646 0 0013.676-9.375l2.775-6.997a1.703 1.703 0 00-.971-2.14z" fill="#3D67B8"/></svg>