<svg width="115" height="61" fill="none" xmlns="http://www.w3.org/2000/svg"><path d="M113.752 11.905c-5.308-1.287-10.672-2.597-15.89-3.954a74.213 74.213 0 01-12.167-4.765l-3.576-1.548c-5.506-2.359-11.466-2.165-16.875.548l-2.937 1.477c-3.162 1.468-6.616 1.468-9.778 0l-2.864-1.477c-5.388-2.69-11.319-2.884-16.802-.548L29.214 3.21a74.213 74.213 0 01-12.168 4.764 847.542 847.542 0 01-15.817 3.93c-.342.072-.655.301-.88.646A2.28 2.28 0 000 13.787c0 .453.124.892.35 1.236.224.345.537.574.88.646 2.371.595 4.743 1.167 7.132 1.69a2.13 2.13 0 00-.404.972c-.059.369-.032.752.076 1.101l4.123 13.46c2.107 6.801 5.526 12.775 9.924 17.34 4.395 4.577 9.625 7.582 15.178 8.72 6.7 1.362 13.47 2.047 20.25 2.048 6.78-.003 13.55-.688 20.25-2.049 5.545-1.156 10.768-4.163 15.163-8.729 4.394-4.565 7.812-10.535 9.921-17.33l4.123-13.46c.113-.348.142-.733.084-1.103a2.076 2.076 0 00-.412-.97 244.08 244.08 0 007.133-1.69c.342-.072.655-.3.88-.646.225-.344.349-.783.349-1.236 0-.454-.124-.892-.349-1.237-.225-.345-.538-.574-.88-.645h-.019zm-96.067-.19a79.943 79.943 0 0012.57-4.765c1.167-.524 2.316-1.072 3.484-1.572 4.852-2.076 10.104-1.9 14.867.5 1.004.5 1.989 1.024 2.992 1.5 3.813 1.763 7.973 1.763 11.785 0 1.004-.476 1.989-1 2.992-1.5 4.764-2.4 10.016-2.576 14.868-.5l3.485 1.572a80.22 80.22 0 0012.57 4.883l8.081 2.049a226.528 226.528 0 01-47.888 5.026h-.53A228.094 228.094 0 019.53 13.763l8.155-2.049zm30.63 29.275h-1.442V22.481c3.357.143 6.732.239 10.089.239h.31v18.27h-8.957zM30.8 34.56c-3.79-3.02-7.093-6.977-9.723-11.649l-1.697-3.049a2.648 2.648 0 00-.237-.405c3.868.667 7.753 1.23 11.657 1.691V34.56zm2.92-13.126c3.41.358 6.822.62 10.234.834v18.295c-3.551-.598-7.007-1.933-10.235-3.955V21.433zm26.506 1.263c3.503 0 7.006-.167 10.49-.358v18.343c-1.308.2-2.623.303-3.94.31h-6.55V22.695zm13.427-.548c3.175-.238 6.349-.524 9.523-.881v14.125c-2.973 2.178-6.185 3.745-9.523 4.645v-17.89zm12.46-1.239c3.284-.405 6.568-.905 9.851-1.453l-.164.238-1.587 2.883c-2.212 4.069-4.954 7.6-8.1 10.433v-12.1zm18.243-2.882l-4.123 13.435c-1.909 6.207-5.016 11.662-9.018 15.836-4.003 4.175-8.764 6.925-13.822 7.985a98.899 98.899 0 01-39.587 0c-5.079-1.032-9.865-3.77-13.888-7.947-4.024-4.176-7.146-9.646-9.062-15.874l-4.123-13.435a1.326 1.326 0 000-.167c2.244.453 4.488.905 6.732 1.31a1.69 1.69 0 00-.553.697c-.132.294-.2.63-.195.97a2.32 2.32 0 00.273 1.12l1.825 3.216c3.398 5.989 7.805 10.879 12.88 14.293 4.26 2.847 8.91 4.57 13.681 5.074.93.119 1.953.166 3.047.166h18.334a27.905 27.905 0 005.637-.571c4.579-.912 8.981-2.957 12.971-6.027 4.425-3.372 8.25-7.935 11.22-13.387l1.569-2.859c.113-.203.194-.433.239-.677.044-.245.052-.498.021-.746a2.293 2.293 0 00-.2-.7 1.804 1.804 0 00-.389-.545l-.146-.143c2.226-.405 4.433-.834 6.641-1.286a1.2 1.2 0 00-.073.262h.109z" fill="#3D67B8"/></svg>