<svg width="60" height="58" fill="none" xmlns="http://www.w3.org/2000/svg"><path d="M56.725 37.955l-13.764-4.572a1.206 1.206 0 00-.547 0l-20.308 2.969a4.758 4.758 0 00-.602-3.355l3.447-1.762h15.384c.29 0 .568-.104.773-.29a.944.944 0 00.32-.7.944.944 0 00-.32-.7 1.156 1.156 0 00-.773-.29H24.666a1.184 1.184 0 00-.525.13l-3.742 1.92c-2.593-3.267-7.233-6.265-9.158-7.423a2.045 2.045 0 000-.396c.11-1.643-1.904-5.077-4.049-6.928a3.97 3.97 0 00-2.19-.92 4.116 4.116 0 00-2.362.465l-.853.475a3.63 3.63 0 00-1.093.925 3.244 3.244 0 00-.606 1.237 3.078 3.078 0 00-.024 1.354c.093.448.284.874.563 1.254l.832 1.168 3.665 4.948L15.4 41.211a7.218 7.218 0 002.943 2.326l3.851 5.285h-5.361c-1.58.01-3.093.585-4.208 1.6-1.115 1.013-1.742 2.384-1.744 3.814v2.098c0 .262.115.514.32.7.205.185.484.29.774.29h37.202c.29 0 .568-.105.773-.29a.944.944 0 00.32-.7.944.944 0 00-.32-.7 1.156 1.156 0 00-.773-.29H13.068v-1.108c.003-.92.408-1.803 1.128-2.454.72-.65 1.695-1.017 2.713-1.02H31.92c.29 0 .568-.104.773-.29a.944.944 0 00.32-.7.944.944 0 00-.32-.7 1.156 1.156 0 00-.773-.29h-7.123L21.46 44.21a8.273 8.273 0 001.784-.119l8.206-1.455 6.073 7.562c.1.123.23.224.38.295.15.07.315.108.484.11H50.84c1.018 0 1.995.367 2.715 1.018.72.652 1.125 1.535 1.125 2.456 0 .263.116.515.32.7.206.186.484.29.775.29.29 0 .568-.104.773-.29a.945.945 0 00.32-.7c0-1.435-.63-2.812-1.752-3.828-1.123-1.015-2.645-1.585-4.232-1.585h-11.95L33.77 42.23l9.18-1.633 11.335 3.543c.385.118.788.178 1.193.178.567 0 1.126-.122 1.63-.356a3.522 3.522 0 001.526-1.296 3.047 3.047 0 00.486-1.842 3.108 3.108 0 00-.715-1.78 3.637 3.637 0 00-1.68-1.13v.04zM3.253 21.457l-.81-1.158a1.342 1.342 0 01-.236-.534 1.284 1.284 0 01.018-.575c.048-.19.138-.369.264-.527a1.57 1.57 0 01.469-.393l.853-.455a1.773 1.773 0 011.016-.2c.354.037.685.176.943.398 1.936 1.662 3.435 4.602 3.392 5.394 0 .059-.077.593-1.248 1.276l-1.575.91-3.086-4.136zm53.68 20.012c-.06.172-.159.331-.288.469-.13.138-.288.25-.467.332a1.622 1.622 0 01-1.16.07l-11.641-3.623a1.33 1.33 0 00-.559 0l-19.98 3.514a6.002 6.002 0 01-3.282-.347 5.45 5.45 0 01-2.298-1.742L7.543 27.188l1.521-.87a6.91 6.91 0 001.094-.753c3.228 1.98 7.233 4.949 9.016 7.532.358.416.615.895.754 1.407a3.41 3.41 0 01.056 1.562 2.1 2.1 0 01-.547.821l-1.674 1.485a.942.942 0 00-.302.683c0 .254.108.499.302.683a1.153 1.153 0 001.52.02l1.434-1.267 21.807-3.247 13.47 4.543c.367.115.67.355.846.67.176.313.21.677.094 1.013zM39.022 20.982c.218.158.494.235.773.215a1.14 1.14 0 00.726-.324l1.838-1.98c1.096-1.178 1.632-2.7 1.493-4.235-.14-1.535-.943-2.958-2.237-3.96l-4.169-3.246 1.98-2.038 5.953.099c.29 0 .568-.105.774-.29a.944.944 0 00.32-.7.944.944 0 00-.32-.7 1.155 1.155 0 00-.774-.29l-6.456-.109c-.158 0-.314.031-.458.091a1.09 1.09 0 00-.373.256l-2.276 2.425-1.641-1.247 2.768-2.97h12.2c.29 0 .568-.104.774-.29a.944.944 0 00.32-.7.944.944 0 00-.32-.7A1.155 1.155 0 0049.143 0H36.45c-.155 0-.308.03-.45.088a1.094 1.094 0 00-.37.248l-3.086 3.336-2.965-2.277C28.275.392 26.584-.102 24.878.02c-1.706.123-3.29.852-4.402 2.029l-1.839 1.91a.93.93 0 00-.262.712.964.964 0 00.383.664l20.264 15.647zM22.139 3.306c.74-.785 1.794-1.272 2.93-1.354 1.138-.081 2.264.249 3.131.918l12.036 9.303c.869.671 1.407 1.627 1.497 2.657.09 1.03-.275 2.05-1.015 2.836l-1.094 1.208-18.601-14.36 1.116-1.208zm3.337 14.509c.155 0 .309-.03.45-.089.142-.058.268-.142.37-.248l1.598-1.702a.927.927 0 00.243-.705.959.959 0 00-.363-.661 1.174 1.174 0 00-.78-.22 1.14 1.14 0 00-.73.329l-1.609 1.653a.928.928 0 00-.248.71.96.96 0 00.369.665c.19.162.439.257.7.268zm-2.09-7.205l-3.819.415c-.29.016-.561.136-.754.332a.934.934 0 00-.274.718c.017.262.15.508.367.682.217.174.502.264.793.248h.13l3.82-.416c.16.01.321-.013.471-.066.15-.053.285-.136.396-.242a.975.975 0 00.244-.37.899.899 0 00-.114-.837 1.048 1.048 0 00-.336-.306 1.206 1.206 0 00-.924-.108v-.05zm8.195 6.67c-.278.015-.54.126-.731.31a.94.94 0 00-.297.68l.12 3.078c.017.252.14.489.343.662.203.173.472.269.751.268.28-.015.54-.126.732-.31a.94.94 0 00.297-.68l-.142-3.048a.948.948 0 00-.324-.674 1.154 1.154 0 00-.749-.286z" fill="#3D67B8"/></svg>