<svg width="57" height="64" fill="none" xmlns="http://www.w3.org/2000/svg"><path d="M55.669 22.118a15.379 15.379 0 00-1.46-3.62 10.636 10.636 0 00-9.25-5.205c-.627-.003-1.254.05-1.872.162l-3.283.574a1.024 1.024 0 10.362 2.01l3.283-.574a8.737 8.737 0 018.987 4.056 12.8 12.8 0 011.248 3.12c.352 1.371.528 2.78.525 4.195a15.615 15.615 0 01-2.06 7.739l-2.122 3.831a15.627 15.627 0 00-1.997 6.354 32.14 32.14 0 01-4.244 13.355l-1.473 2.496a1.06 1.06 0 01-.923.537 1.074 1.074 0 01-1.074-1.073v-4.182a17.95 17.95 0 00-.998-5.916l-.524-1.697a3.27 3.27 0 00-6.241-.075l-.575 1.547a18.171 18.171 0 00-1.148 6.366v4.007a1.087 1.087 0 01-.324.774 1.035 1.035 0 01-.75.3 1.073 1.073 0 01-.948-.538l-1.46-2.496a32.154 32.154 0 01-4.157-13.393 15.514 15.514 0 00-.873-3.944 1.024 1.024 0 00-1.311-.6 1.011 1.011 0 00-.612 1.249c.41 1.112.666 2.276.762 3.457a34.811 34.811 0 004.456 14.192l1.473 2.497a3.122 3.122 0 003.886 1.327 3.133 3.133 0 001.917-2.887v-3.895a16.113 16.113 0 011.024-5.642l.587-1.56a1.248 1.248 0 011.148-.811 1.249 1.249 0 011.16.823l.587 1.71c.587 1.69.887 3.466.887 5.255v4.232a3.108 3.108 0 005.804 1.56l1.46-2.496a34.625 34.625 0 004.481-14.305 13.606 13.606 0 011.748-5.53l2.196-3.831a17.687 17.687 0 002.322-8.737 17.964 17.964 0 00-.624-4.718z" fill="#3D67B8"/><path d="M24.19 37.645a5.317 5.317 0 004.705 2.497 6.767 6.767 0 001.498-.175h.063a5.467 5.467 0 00-1.311-10.734c-.28.005-.56.03-.836.074a6.613 6.613 0 00-1.074-1.922 9.664 9.664 0 001.773-1.248c.857.427 1.8.653 2.758.662h.65a6.453 6.453 0 005.429-4.531 6.677 6.677 0 00-3.42-7.814 1.022 1.022 0 00-1.557.311 1.025 1.025 0 00.62 1.461 4.656 4.656 0 012.41 5.418 4.506 4.506 0 01-3.745 3.095 4.405 4.405 0 01-3.233-1.024 5.192 5.192 0 01-1.897-3.457 1.024 1.024 0 00-2.034.187 7.24 7.24 0 002.271 4.519 6.978 6.978 0 01-2.097 1.136 7.23 7.23 0 01-4.33.1 2.084 2.084 0 000-.288 1.024 1.024 0 00-2.01-.2h-.088a6.59 6.59 0 00-2.708 3.283 2.733 2.733 0 01-.462.063 3.295 3.295 0 01-.487-6.466h.45a3.27 3.27 0 012.184.836 1.021 1.021 0 001.497-.031 1.026 1.026 0 00-.137-1.491 5.317 5.317 0 00-3.332-1.348 7.228 7.228 0 0113.306-5.055 6.516 6.516 0 010 6.24 1.015 1.015 0 101.747 1.036 8.575 8.575 0 000-8.287 9.261 9.261 0 00-17.225 4.755c.004.545.058 1.088.162 1.623a5.33 5.33 0 001.785 10.335v.224a6.603 6.603 0 006.578 6.59 6.241 6.241 0 002.097-.374zm8.238-3.083a3.557 3.557 0 01-2.497 3.408 4.067 4.067 0 01-3.307-.65 3.484 3.484 0 01-.587-.623 6.514 6.514 0 002.684-5.28v-.138c.157-.012.316-.012.474 0a3.545 3.545 0 013.233 3.283zm-14.854-3.145a4.096 4.096 0 01.163-1.174 4.593 4.593 0 011.672-2.433c1.1.438 2.274.662 3.458.661a8.9 8.9 0 002.359-.337c.718.66 1.2 1.537 1.373 2.496.047.23.068.465.062.7a4.556 4.556 0 01-4.543 4.555 4.568 4.568 0 01-4.544-4.468zm19.235-19.834a4.993 4.993 0 100-9.985 4.993 4.993 0 000 9.985zm0-7.851a2.908 2.908 0 11-2.896 2.908 2.908 2.908 0 012.896-2.895v-.013zM9.985 21.581a4.993 4.993 0 10-9.985 0 4.993 4.993 0 009.985 0zm-4.892 2.896a2.908 2.908 0 110-5.817 2.908 2.908 0 010 5.817zM21.194 7.664a3.832 3.832 0 100-7.664 3.832 3.832 0 000 7.664zm0-5.63a1.797 1.797 0 110 3.596 1.797 1.797 0 010-3.595zm-9.411 33.939a3.832 3.832 0 103.82 3.819 3.82 3.82 0 00-3.82-3.82zm0 5.616a1.798 1.798 0 11-.3-3.583 1.798 1.798 0 01.3 3.583z" fill="#3D67B8"/></svg>