<svg width="53" height="59" fill="none" xmlns="http://www.w3.org/2000/svg"><path d="M49.95 26.086a6.746 6.746 0 00-2.575-.902c-1.737-.236-3.507.159-4.933 1.1.243-.551.523-1.087.838-1.606l2.287-3.651c1.563-2.52 2.388-5.37 2.395-8.27.043-2.742-.7-5.446-2.155-7.84-.965-1.511-2.347-2.76-4.006-3.624A11.6 11.6 0 0036.358 0a12.7 12.7 0 00-1.928.154L26.647 1.42 18.827.154c-.64-.1-1.29-.152-1.94-.154a11.61 11.61 0 00-5.413 1.3c-1.65.861-3.024 2.104-3.987 3.605-1.454 2.41-2.19 5.13-2.132 7.885.002 2.901.827 5.751 2.395 8.27l2.275 3.65c.312.509.588 1.034.827 1.573-1.414-.931-3.164-1.325-4.886-1.1a6.746 6.746 0 00-2.575.903A6.532 6.532 0 001.1 28.4a5.89 5.89 0 00-.797 3.041v19.377a8.341 8.341 0 00.68 3.684 8.981 8.981 0 002.253 3.112 6.055 6.055 0 002.647 1.221c.659.12 3.592.165 6.874.165 4.682 0 10.166-.077 11.172-.099 1.341 0 8.634.099 14.765.099 4.312 0 8.06 0 8.718-.165a6.055 6.055 0 002.647-1.22 8.981 8.981 0 002.252-3.113 8.34 8.34 0 00.682-3.684V31.441a5.885 5.885 0 00-.777-3.034 6.519 6.519 0 00-2.265-2.321zM9.307 20.213c-1.412-2.259-2.155-4.818-2.156-7.423a13.016 13.016 0 011.892-7.038 8.702 8.702 0 013.343-2.993 9.644 9.644 0 014.525-1.054c.534.002 1.066.042 1.593.12l7.963 1.299c.108.01.216.01.323 0l7.964-1.298c.534-.08 1.075-.12 1.616-.121a9.642 9.642 0 014.52 1.061 8.698 8.698 0 013.336 2.997 13.075 13.075 0 011.88 7.027c0 2.605-.743 5.164-2.155 7.423l-2.276 3.651a13.97 13.97 0 00-2.06 6.005c-.43 4.5-1.92 8.86-4.37 12.778l-1.51 2.442a1.153 1.153 0 01-.57.693 1.33 1.33 0 01-.938.12 1.231 1.231 0 01-.755-.524 1.056 1.056 0 01-.131-.861V40.69a15.96 15.96 0 00-1.198-6.005l-.598-1.484a3.064 3.064 0 00-1.2-1.419 3.486 3.486 0 00-1.866-.539c-.679 0-1.341.194-1.893.557a3.015 3.015 0 00-1.185 1.467l-.61 1.616a15.988 15.988 0 00-.934 5.576v4.036a1.03 1.03 0 01-.12.838 1.14 1.14 0 01-.31.324 1.248 1.248 0 01-.42.19 1.308 1.308 0 01-.913-.11 1.122 1.122 0 01-.56-.67l-1.521-2.42c-2.186-3.505-3.61-7.367-4.192-11.37v-.188l-.072-.385c0-.275-.083-.55-.107-.835a13.97 13.97 0 00-2.06-6.005l-2.275-3.65zm41.829 30.605a6.815 6.815 0 01-.52 2.969 7.318 7.318 0 01-1.768 2.53 3.987 3.987 0 01-1.844.868c-1.113.198-14.765.132-23.112 0-6.25.088-16.585.154-17.663 0a3.987 3.987 0 01-1.796-.846 7.317 7.317 0 01-1.769-2.53 6.816 6.816 0 01-.518-2.969V31.441a4.353 4.353 0 01.557-2.23c.385-.69.95-1.28 1.646-1.718a4.901 4.901 0 011.844-.649 5.397 5.397 0 011.978.118c.644.16 1.246.438 1.77.817 1.057.78 1.757 1.893 1.964 3.123.558 4.434 2.09 8.718 4.503 12.592l1.509 2.42c.34.546.866.974 1.498 1.216a3.36 3.36 0 001.995.125 3.129 3.129 0 001.663-1.02 2.7 2.7 0 00.64-1.74v-4.036a14.262 14.262 0 01.91-5.048l.61-1.617c.097-.253.277-.472.515-.628a1.513 1.513 0 011.623-.007c.237.151.42.365.521.614l.599 1.484a14.282 14.282 0 011.066 5.433v3.827c.002.625.23 1.232.645 1.728a3.13 3.13 0 001.656 1.012 3.36 3.36 0 001.985-.12 3.037 3.037 0 001.497-1.202l1.51-2.419c2.324-3.728 3.833-7.837 4.442-12.097a.438.438 0 010-.12 4.812 4.812 0 01.671-1.948 5.251 5.251 0 011.449-1.55 5.152 5.152 0 011.77-.817 5.419 5.419 0 011.978-.118 4.902 4.902 0 011.844.65 4.813 4.813 0 011.633 1.71c.383.684.575 1.446.559 2.215v19.377h-.06z" fill="#3D67B8"/><path d="M12.624 12.097a.978.978 0 00.656-.247.825.825 0 00.278-.6 4.955 4.955 0 011.006-3.1l.251-.298a5.027 5.027 0 012.227-1.338 5.394 5.394 0 012.66-.091l4.79.979a1.007 1.007 0 00.696-.115.896.896 0 00.26-.23.816.816 0 00.145-.304.78.78 0 00-.125-.64.887.887 0 00-.25-.24.969.969 0 00-.332-.132l-4.79-.979a7.396 7.396 0 00-3.605.15 6.891 6.891 0 00-3.017 1.819l-.347.396a6.579 6.579 0 00-1.365 4.102.819.819 0 00.243.59c.16.162.382.262.619.278z" fill="#3D67B8"/></svg>