<svg width="53" height="58" fill="none" xmlns="http://www.w3.org/2000/svg"><path d="M38.264 53.007c-4.863 3.22-12.13 2.437-14.737 2.018.51-3.945-1.054-5.407-1.247-5.566a1.054 1.054 0 00-1.485.102 1.021 1.021 0 00.114 1.45s1.133 1.134.42 4.648a1.032 1.032 0 00.793 1.213 30.61 30.61 0 006.393.646c3.819.14 7.597-.824 10.882-2.777a1.041 1.041 0 00-.311-1.964 1.043 1.043 0 00-.822.23zm-20.642-5.77a11.88 11.88 0 01-5.668.85 21.441 21.441 0 01-3.537-.623.748.748 0 01-.487-.42.59.59 0 010-.498 3.4 3.4 0 001.02-4.127 2.743 2.743 0 00-1.428-1.133c-.125 0-.216-.182-.193-.25a.691.691 0 01.533-.442h2.493a1.043 1.043 0 100-2.085H7.941l-.6-.17a.306.306 0 01-.205-.204.555.555 0 010-.227c.376-.54.582-1.18.59-1.837l.079-2.46a1.009 1.009 0 00-.295-.759 1.032 1.032 0 00-.748-.317H3.6c.454-.862.953-1.735 1.429-2.585l1.133-2.052a12.538 12.538 0 001.497-5.225 7.8 7.8 0 000-1.542 13.954 13.954 0 01-.136-1.79c-.007-.917.1-1.831.317-2.722a19.679 19.679 0 015.328-9.374C21.17-.452 32.8 2.711 33.287 2.858a17.003 17.003 0 0110.43 7.663 18.137 18.137 0 012.414 11.336 23.255 23.255 0 01-.885 3.593 1.043 1.043 0 001.973.657c.432-1.286.758-2.605.975-3.944a20.404 20.404 0 00-2.675-12.696A19.169 19.169 0 0033.82.874C32.471.49 20.4-2.606 11.693 5.771a21.696 21.696 0 00-5.906 10.372 13.513 13.513 0 00-.397 3.242c.005.687.058 1.373.16 2.052.033.377.033.757 0 1.134a10.486 10.486 0 01-1.248 4.25A90.334 90.334 0 013.17 28.84c-.782 1.383-1.587 2.812-2.267 4.217a1.008 1.008 0 00.056.998 1.032 1.032 0 00.884.487h3.889v1.383c0 .237-.066.469-.193.669a2.437 2.437 0 00-.43 1.564c.01.567.232 1.109.623 1.52-.162.24-.284.503-.363.781a2.347 2.347 0 001.462 2.755.782.782 0 01.374.25 1.485 1.485 0 01-.612 1.552 1.915 1.915 0 00-.43.556 2.64 2.64 0 00-.103 2.267 2.845 2.845 0 001.848 1.61c1.276.344 2.582.572 3.9.68.429.045.86.068 1.292.068 1.829 0 3.64-.362 5.327-1.066a1.042 1.042 0 10-.804-1.916v.023z" fill="#3D67B8"/><path d="M51.957 44.426a1.043 1.043 0 00-1.043 1.043 2.426 2.426 0 01-1.133 2.063 4.987 4.987 0 01-2.596.725H36.529a1.417 1.417 0 01-1.133-.487c-.182-.227-.159-.352-.148-.408.012-.057.136-.533 1.043-1.134a1.042 1.042 0 00-.6-1.893h-1.803a1.042 1.042 0 01-1.043-.68.839.839 0 010-.295c0-.09.125-.453 1.247-1.303l.295-.227a1.043 1.043 0 00-.726-1.791h-1.847a.813.813 0 11-.352-1.587l.93-.408a1.043 1.043 0 00-.431-1.995h-8.434a1.2 1.2 0 01-1.133-.84.886.886 0 010-.18 1.132 1.132 0 010-.33 1.134 1.134 0 011.133-.804h13.376a1.746 1.746 0 001.406-.6 1.666 1.666 0 00.283-1.746.941.941 0 00-.374-.465l-1.893-1.304-.136-.08c-.465-.226-1.485-.94-1.643-1.62l14.736 5.917c.338.134.643.339.895.6.458.44.723 1.044.737 1.678a1.043 1.043 0 102.086 0 4.41 4.41 0 00-1.258-3.094 4.535 4.535 0 00-1.621-1.134L35.384 26.13a2.13 2.13 0 00-2.074.295 2.005 2.005 0 00-.794 1.916c.261 1.847 2.268 2.992 2.732 3.23l.397.272H23.527a3.253 3.253 0 00-3.219 2.403c-.07.294-.1.595-.09.896 0 .159 0 .317.056.476a3.253 3.253 0 003.253 2.517h5.487a2.55 2.55 0 00-.227.872c-.034.316-.011.634.068.941a2.879 2.879 0 002.267 2.075c-.227.336-.36.728-.385 1.133-.033.296-.013.595.057.884a3.049 3.049 0 002.539 2.267 2.853 2.853 0 00-.216.715 2.583 2.583 0 00.612 2.017 3.537 3.537 0 002.789 1.304h10.655a7.142 7.142 0 003.684-1.032A4.534 4.534 0 0053 45.47a1.043 1.043 0 00-1.043-1.043z" fill="#3D67B8"/><path d="M28.266 28.919a1.046 1.046 0 00-.204-1.463 10.371 10.371 0 00-6.507-2.267 10.474 10.474 0 105.668 19.27 1.041 1.041 0 00-.327-1.935 1.04 1.04 0 00-.807.19 8.388 8.388 0 11-4.534-15.428 8.23 8.23 0 015.203 1.814 1.043 1.043 0 001.508-.181z" fill="#3D67B8"/><path d="M21.861 31.741a1.043 1.043 0 100-2.086 6.008 6.008 0 103.593 10.815 1.043 1.043 0 00-1.246-1.667 3.922 3.922 0 11-2.346-7.062z" fill="#3D67B8"/></svg>