<svg width="158" height="186" fill="none" xmlns="http://www.w3.org/2000/svg"><g filter="url(#filter0_d)"><path d="M3.891 144.123l65.674 24.38a5.432 5.432 0 003.765-.012l65.517-24.798c2.068-.787 3.431-2.751 3.424-4.943l-.09-28.101a5.256 5.256 0 00-2.304-4.328 5.397 5.397 0 00-4.909-.574l-63.64 24.082-63.786-23.682-1.887-.332a5.382 5.382 0 00-3.025.944 5.258 5.258 0 00-2.277 4.342l.09 28.102a5.281 5.281 0 003.448 4.92z" fill="#0E61AD"/><path d="M3.891 144.123l65.674 24.38a5.432 5.432 0 003.765-.012l65.517-24.798c2.068-.787 3.431-2.751 3.424-4.943l-.09-28.101a5.256 5.256 0 00-2.304-4.328 5.397 5.397 0 00-4.909-.574l-63.64 24.082-63.786-23.682-1.887-.332a5.382 5.382 0 00-3.025.944 5.258 5.258 0 00-2.277 4.342l.09 28.102a5.281 5.281 0 003.448 4.92z" fill="url(#paint0_linear)"/></g><g filter="url(#filter1_d)"><path d="M3.554 38.744l65.674 24.379a5.424 5.424 0 003.766-.012l65.517-24.798a5.278 5.278 0 003.423-4.943l-.089-28.101A5.257 5.257 0 00139.54.942a5.378 5.378 0 00-4.909-.575l-63.633 24.09L7.213.774 5.32.436a5.376 5.376 0 00-3.025.944A5.256 5.256 0 00.017 5.722l.09 28.1a5.282 5.282 0 003.448 4.922z" fill="#0E61AD"/><path d="M3.554 38.744l65.674 24.379a5.424 5.424 0 003.766-.012l65.517-24.798a5.278 5.278 0 003.423-4.943l-.089-28.101A5.257 5.257 0 00139.54.942a5.378 5.378 0 00-4.909-.575l-63.633 24.09L7.213.774 5.32.436a5.376 5.376 0 00-3.025.944A5.256 5.256 0 00.017 5.722l.09 28.1a5.282 5.282 0 003.448 4.922z" fill="url(#paint1_linear)"/></g><g filter="url(#filter2_d)"><path d="M3.723 91.434l65.674 24.379a5.432 5.432 0 003.765-.012l65.517-24.798a5.278 5.278 0 003.423-4.943l-.089-28.101a5.257 5.257 0 00-2.305-4.328 5.358 5.358 0 00-4.909-.574l-63.633 24.09L7.382 53.463l-1.894-.338a5.376 5.376 0 00-3.025.944A5.256 5.256 0 00.185 58.41l.09 28.102a5.282 5.282 0 003.448 4.92z" fill="#0E61AD"/><path d="M3.723 91.434l65.674 24.379a5.432 5.432 0 003.765-.012l65.517-24.798a5.278 5.278 0 003.423-4.943l-.089-28.101a5.257 5.257 0 00-2.305-4.328 5.358 5.358 0 00-4.909-.574l-63.633 24.09L7.382 53.463l-1.894-.338a5.376 5.376 0 00-3.025.944A5.256 5.256 0 00.185 58.41l.09 28.102a5.282 5.282 0 003.448 4.92z" fill="url(#paint2_linear)"/></g><g filter="url(#filter3_d)"><path d="M71.452 168.834h.036a5.586 5.586 0 001.85-.344l65.516-24.797a5.283 5.283 0 003.417-4.943l-.09-28.101a5.256 5.256 0 00-2.304-4.328 5.385 5.385 0 00-3.031-.917 5.434 5.434 0 00-1.878.343l-63.64 24.082.124 39.005z" fill="#0E61AD"/><path d="M71.452 168.834h.036a5.586 5.586 0 001.85-.344l65.516-24.797a5.283 5.283 0 003.417-4.943l-.09-28.101a5.256 5.256 0 00-2.304-4.328 5.385 5.385 0 00-3.031-.917 5.434 5.434 0 00-1.878.343l-63.64 24.082.124 39.005z" fill="url(#paint3_linear)"/></g><g filter="url(#filter4_d)"><path d="M71.116 63.454A5.451 5.451 0 0073 63.111l65.517-24.798a5.281 5.281 0 003.416-4.943l-.089-28.101A5.257 5.257 0 00139.54.942a5.41 5.41 0 00-3.031-.925 5.412 5.412 0 00-1.878.343L70.998 24.45l.125 39.004h-.007z" fill="#0E61AD"/><path d="M71.116 63.454A5.451 5.451 0 0073 63.111l65.517-24.798a5.281 5.281 0 003.416-4.943l-.089-28.101A5.257 5.257 0 00139.54.942a5.41 5.41 0 00-3.031-.925 5.412 5.412 0 00-1.878.343L70.998 24.45l.125 39.004h-.007z" fill="url(#paint4_linear)"/></g><g filter="url(#filter5_d)"><path d="M71.284 116.144a5.468 5.468 0 001.885-.343l65.517-24.798a5.281 5.281 0 003.416-4.943l-.089-28.101a5.257 5.257 0 00-2.305-4.328 5.407 5.407 0 00-3.031-.924 5.41 5.41 0 00-1.878.343L71.166 77.14l.125 39.004h-.007z" fill="#0E61AD"/><path d="M71.284 116.144a5.468 5.468 0 001.885-.343l65.517-24.798a5.281 5.281 0 003.416-4.943l-.089-28.101a5.257 5.257 0 00-2.305-4.328 5.407 5.407 0 00-3.031-.924 5.41 5.41 0 00-1.878.343L71.166 77.14l.125 39.004h-.007z" fill="url(#paint5_linear)"/></g><defs><linearGradient id="paint0_linear" x1="71.452" y1="168.834" x2="71.25" y2="105.606" gradientUnits="userSpaceOnUse"><stop stop-color="#FFF2F2"/><stop offset="1" stop-color="#fff" stop-opacity="0"/></linearGradient><linearGradient id="paint1_linear" x1="71.116" y1="63.454" x2="70.914" y2=".226" gradientUnits="userSpaceOnUse"><stop stop-color="#FFF2F2"/><stop offset="1" stop-color="#fff" stop-opacity="0"/></linearGradient><linearGradient id="paint2_linear" x1="71.284" y1="116.144" x2="71.082" y2="52.916" gradientUnits="userSpaceOnUse"><stop stop-color="#FFF2F2"/><stop offset="1" stop-color="#fff" stop-opacity="0"/></linearGradient><linearGradient id="paint3_linear" x1="106.909" y1="168.721" x2="106.707" y2="105.5" gradientUnits="userSpaceOnUse"><stop stop-color="#FFF2F2"/><stop offset="1" stop-color="#fff" stop-opacity="0"/></linearGradient><linearGradient id="paint4_linear" x1="106.573" y1="63.341" x2="106.371" y2=".113" gradientUnits="userSpaceOnUse"><stop stop-color="#FFF2F2"/><stop offset="1" stop-color="#fff" stop-opacity="0"/></linearGradient><linearGradient id="paint5_linear" x1="106.741" y1="116.031" x2="106.539" y2="52.803" gradientUnits="userSpaceOnUse"><stop stop-color="#FFF2F2"/><stop offset="1" stop-color="#fff" stop-opacity="0"/></linearGradient><filter id="filter0_d" x=".337" y="105.38" width="157.03" height="79.68" filterUnits="userSpaceOnUse" color-interpolation-filters="sRGB"><feFlood flood-opacity="0" result="BackgroundImageFix"/><feColorMatrix in="SourceAlpha" values="0 0 0 0 0 0 0 0 0 0 0 0 0 0 0 0 0 0 127 0"/><feOffset dx="8" dy="9"/><feGaussianBlur stdDeviation="3.5"/><feColorMatrix values="0 0 0 0 0 0 0 0 0 0 0 0 0 0 0 0 0 0 0.4 0"/><feBlend in2="BackgroundImageFix" result="effect1_dropShadow"/><feBlend in="SourceGraphic" in2="effect1_dropShadow" result="shape"/></filter><filter id="filter1_d" x="0" y="0" width="157.03" height="79.68" filterUnits="userSpaceOnUse" color-interpolation-filters="sRGB"><feFlood flood-opacity="0" result="BackgroundImageFix"/><feColorMatrix in="SourceAlpha" values="0 0 0 0 0 0 0 0 0 0 0 0 0 0 0 0 0 0 127 0"/><feOffset dx="8" dy="9"/><feGaussianBlur stdDeviation="3.5"/><feColorMatrix values="0 0 0 0 0 0 0 0 0 0 0 0 0 0 0 0 0 0 0.4 0"/><feBlend in2="BackgroundImageFix" result="effect1_dropShadow"/><feBlend in="SourceGraphic" in2="effect1_dropShadow" result="shape"/></filter><filter id="filter2_d" x=".168" y="52.69" width="157.03" height="79.68" filterUnits="userSpaceOnUse" color-interpolation-filters="sRGB"><feFlood flood-opacity="0" result="BackgroundImageFix"/><feColorMatrix in="SourceAlpha" values="0 0 0 0 0 0 0 0 0 0 0 0 0 0 0 0 0 0 127 0"/><feOffset dx="8" dy="9"/><feGaussianBlur stdDeviation="3.5"/><feColorMatrix values="0 0 0 0 0 0 0 0 0 0 0 0 0 0 0 0 0 0 0.4 0"/><feBlend in2="BackgroundImageFix" result="effect1_dropShadow"/><feBlend in="SourceGraphic" in2="effect1_dropShadow" result="shape"/></filter><filter id="filter3_d" x="71.25" y="105.387" width="86.116" height="79.447" filterUnits="userSpaceOnUse" color-interpolation-filters="sRGB"><feFlood flood-opacity="0" result="BackgroundImageFix"/><feColorMatrix in="SourceAlpha" values="0 0 0 0 0 0 0 0 0 0 0 0 0 0 0 0 0 0 127 0"/><feOffset dx="8" dy="9"/><feGaussianBlur stdDeviation="3.5"/><feColorMatrix values="0 0 0 0 0 0 0 0 0 0 0 0 0 0 0 0 0 0 0.4 0"/><feBlend in2="BackgroundImageFix" result="effect1_dropShadow"/><feBlend in="SourceGraphic" in2="effect1_dropShadow" result="shape"/></filter><filter id="filter4_d" x="70.914" y="0" width="86.116" height="79.454" filterUnits="userSpaceOnUse" color-interpolation-filters="sRGB"><feFlood flood-opacity="0" result="BackgroundImageFix"/><feColorMatrix in="SourceAlpha" values="0 0 0 0 0 0 0 0 0 0 0 0 0 0 0 0 0 0 127 0"/><feOffset dx="8" dy="9"/><feGaussianBlur stdDeviation="3.5"/><feColorMatrix values="0 0 0 0 0 0 0 0 0 0 0 0 0 0 0 0 0 0 0.4 0"/><feBlend in2="BackgroundImageFix" result="effect1_dropShadow"/><feBlend in="SourceGraphic" in2="effect1_dropShadow" result="shape"/></filter><filter id="filter5_d" x="71.082" y="52.69" width="86.116" height="79.454" filterUnits="userSpaceOnUse" color-interpolation-filters="sRGB"><feFlood flood-opacity="0" result="BackgroundImageFix"/><feColorMatrix in="SourceAlpha" values="0 0 0 0 0 0 0 0 0 0 0 0 0 0 0 0 0 0 127 0"/><feOffset dx="8" dy="9"/><feGaussianBlur stdDeviation="3.5"/><feColorMatrix values="0 0 0 0 0 0 0 0 0 0 0 0 0 0 0 0 0 0 0.4 0"/><feBlend in2="BackgroundImageFix" result="effect1_dropShadow"/><feBlend in="SourceGraphic" in2="effect1_dropShadow" result="shape"/></filter></defs></svg>