<svg width="24" height="24" fill="none" xmlns="http://www.w3.org/2000/svg"><path d="M23.445 18.47l-5.33-3.856a.748.748 0 00-.838-.027l-3.003 1.893c-.161.031-.863-.101-2.22-1.092-1.142-.834-2.365-2-3.272-3.121-1.344-1.66-1.445-2.498-1.37-2.686l1.885-3.043a.766.766 0 00-.027-.846L5.447.317A.752.752 0 004.302.223l-2.75 2.773C-.006 4.567-.44 6.96.472 8.95a30.475 30.475 0 004.708 7.307 28.595 28.595 0 009.778 7.3c1.928.88 4.261.426 5.805-1.131l2.776-2.8a.764.764 0 00-.094-1.156z" fill="url(#paint0_linear)"/><path d="M23.445 18.47l-5.33-3.856a.748.748 0 00-.838-.027l-3.003 1.893c-.161.031-.863-.101-2.22-1.092-1.142-.834-2.365-2-3.272-3.121-1.344-1.66-1.445-2.498-1.37-2.686l1.885-3.043a.766.766 0 00-.027-.846L5.447.317A.752.752 0 004.302.223l-2.75 2.773C-.006 4.567-.44 6.96.472 8.95a30.475 30.475 0 004.708 7.307 28.595 28.595 0 009.778 7.3c1.928.88 4.261.426 5.805-1.131l2.776-2.8a.764.764 0 00-.094-1.156z" fill="url(#paint1_linear)"/><defs><linearGradient id="paint0_linear" x1="12.862" y1="24" x2="12.862" y2="-1.945" gradientUnits="userSpaceOnUse"><stop stop-color="#EFEFEF"/><stop offset="1" stop-color="#fff"/></linearGradient><linearGradient id="paint1_linear" x1="12.862" y1="24" x2="12.862" y2="-1.945" gradientUnits="userSpaceOnUse"><stop stop-color="#EFEFEF"/><stop offset="1" stop-color="#fff"/></linearGradient></defs></svg>