<svg width="40" height="40" fill="none" xmlns="http://www.w3.org/2000/svg"><path d="M19.974 39.947c11.03 0 19.973-8.942 19.973-19.973C39.947 8.942 31.005 0 19.974 0 8.942 0 0 8.942 0 19.974c0 11.03 8.942 19.973 19.974 19.973z" fill="#1E88E5"/><path fill-rule="evenodd" clip-rule="evenodd" d="M19.22 28.734h1.567s.473-.052.715-.313c.223-.24.216-.689.216-.689s-.031-2.103.945-2.413c.963-.305 2.198 2.033 3.508 2.932.99.68 1.744.531 1.744.531l3.502-.048s1.832-.113.963-1.554c-.07-.118-.506-1.066-2.604-3.013-2.196-2.038-1.902-1.709.744-5.235 1.61-2.147 2.255-3.458 2.054-4.02-.192-.534-1.377-.393-1.377-.393l-3.944.025s-.292-.04-.509.09c-.212.127-.348.423-.348.423s-.624 1.661-1.457 3.075c-1.756 2.981-2.458 3.139-2.745 2.954-.667-.432-.5-1.734-.5-2.659 0-2.89.438-4.095-.854-4.406-.429-.104-.744-.172-1.84-.183-1.408-.015-2.599.004-3.273.334-.449.22-.795.71-.584.738.26.035.851.159 1.164.585.404.55.39 1.784.39 1.784s.232 3.402-.542 3.825c-.532.29-1.261-.302-2.827-3.007a25.146 25.146 0 01-1.407-2.918s-.117-.286-.326-.44c-.252-.185-.606-.244-.606-.244l-3.747.025s-.563.016-.769.26c-.184.218-.015.668-.015.668s2.934 6.864 6.256 10.323c3.046 3.17 6.505 2.963 6.505 2.963z" fill="#fff"/></svg>