<svg width="42" height="36" fill="none" xmlns="http://www.w3.org/2000/svg"><path d="M42 4.262a17.228 17.228 0 01-4.961 1.434 8.963 8.963 0 003.788-5.02 16.673 16.673 0 01-5.46 2.198C33.787 1.1 31.534 0 29.077 0c-4.767 0-8.605 4.082-8.605 9.086 0 .72.058 1.412.2 2.071C13.513 10.79 7.179 7.17 2.924 1.656a9.532 9.532 0 00-1.178 4.591c0 3.146 1.535 5.935 3.824 7.55-1.383-.028-2.74-.452-3.89-1.12v.1c0 4.414 2.985 8.08 6.899 8.926a8.18 8.18 0 01-2.258.299c-.551 0-1.108-.034-1.63-.155 1.115 3.597 4.281 6.241 8.046 6.327-2.93 2.418-6.65 3.874-10.676 3.874-.706 0-1.384-.033-2.061-.124A23.333 23.333 0 0013.209 36c15.845 0 24.507-13.846 24.507-25.848 0-.402-.013-.79-.032-1.174C39.395 7.698 40.83 6.1 42 4.262z" fill="#03A9F4"/></svg>