<svg width="35" height="36" fill="none" xmlns="http://www.w3.org/2000/svg"><path d="M24.205.249H11.251C5.291.249.457 5.188.457 11.279v13.235c0 6.09 4.833 11.03 10.794 11.03h12.954c5.961 0 10.795-4.94 10.795-11.03V11.278C35 5.188 30.166.248 24.205.248zm7.557 24.265c0 4.257-3.39 7.72-7.557 7.72H11.251c-4.166 0-7.556-3.463-7.556-7.72V11.278c0-4.257 3.39-7.72 7.556-7.72h12.954c4.167 0 7.557 3.463 7.557 7.72v13.236z" fill="url(#paint0_linear)"/><path d="M17.728 9.072c-4.769 0-8.636 3.951-8.636 8.824 0 4.873 3.867 8.823 8.636 8.823 4.77 0 8.636-3.95 8.636-8.823s-3.867-8.824-8.636-8.824zm0 14.339c-2.975 0-5.397-2.475-5.397-5.515 0-3.042 2.422-5.515 5.397-5.515s5.398 2.473 5.398 5.515c0 3.04-2.423 5.515-5.398 5.515z" fill="url(#paint1_linear)"/><defs><linearGradient id="paint0_linear" x1="3.619" y1="32.313" x2="32.445" y2="4.099" gradientUnits="userSpaceOnUse"><stop stop-color="#FFC107"/><stop offset=".507" stop-color="#F44336"/><stop offset=".99" stop-color="#9C27B0"/></linearGradient><linearGradient id="paint1_linear" x1="11.622" y1="24.135" x2="24.097" y2="11.925" gradientUnits="userSpaceOnUse"><stop stop-color="#FFC107"/><stop offset=".507" stop-color="#F44336"/><stop offset=".99" stop-color="#9C27B0"/></linearGradient></defs></svg>